<svg xmlns="http://www.w3.org/2000/svg" xmlns:xlink="http://www.w3.org/1999/xlink" width="1920" zoomAndPan="magnify" viewBox="0 0 1440 449.999984" height="600" preserveAspectRatio="xMidYMid meet" version="1.0"><defs><g/><clipPath id="id1"><path d="M 25.097656 175.109375 L 435.347656 175.109375 L 435.347656 407.871094 L 25.097656 407.871094 Z M 25.097656 175.109375 " clip-rule="nonzero"/></clipPath></defs><g clip-path="url(#id1)"><path fill="#64ffda" d="M 329.976562 256.460938 L 371.726562 256.460938 C 376.328125 256.460938 380.722656 254.644531 383.941406 251.382812 L 430.410156 204.878906 C 437.183594 198.121094 437.183594 187.160156 430.410156 180.417969 C 423.660156 173.675781 412.710938 173.675781 405.976562 180.417969 L 364.582031 221.84375 L 329.976562 221.84375 C 329.976562 210.300781 320.632812 200.949219 309.09375 200.949219 L 256.648438 200.949219 L 256.648438 237.9375 C 256.648438 241.863281 255.089844 245.636719 252.316406 248.414062 L 223.816406 276.980469 C 224.558594 280.128906 224.761719 283.441406 224.316406 286.933594 C 222.71875 299.472656 212.507812 309.679688 199.957031 311.164062 C 181.8125 313.328125 166.566406 298.089844 168.710938 279.910156 C 170.183594 267.359375 180.378906 257.125 192.902344 255.5 C 196.40625 255.054688 199.714844 255.269531 202.859375 256.011719 L 227.039062 231.808594 L 227.039062 200.949219 L 151.484375 200.949219 C 139.945312 200.949219 130.605469 210.300781 130.605469 221.84375 L 95.996094 221.84375 L 54.605469 180.417969 C 47.832031 173.675781 36.917969 173.675781 30.171875 180.417969 C 23.410156 187.160156 23.410156 198.121094 30.171875 204.878906 L 76.585938 251.367188 C 79.832031 254.632812 84.253906 256.460938 88.855469 256.460938 L 130.605469 256.460938 L 130.605469 303.925781 C 130.605469 306.597656 130.71875 309.257812 130.972656 311.972656 L 106.09375 311.972656 C 101.542969 311.972656 97.148438 313.789062 93.890625 317.050781 L 47.421875 363.554688 C 40.6875 370.296875 40.6875 381.261719 47.421875 388.015625 C 50.835938 391.378906 55.230469 393.082031 59.679688 393.082031 C 64.085938 393.082031 68.523438 391.378906 71.894531 388.015625 L 113.273438 346.578125 L 140.675781 346.578125 C 153.339844 374.109375 176.761719 398.019531 203.5625 407.691406 L 203.5625 370.707031 C 203.5625 366.765625 205.132812 362.992188 207.90625 360.203125 L 236.40625 331.6875 C 235.652344 328.539062 235.433594 325.210938 235.894531 321.707031 C 237.515625 309.167969 247.738281 298.972656 260.289062 297.488281 C 278.4375 295.367188 293.65625 310.617188 291.496094 328.78125 C 290 341.332031 279.804688 351.554688 267.292969 353.167969 C 263.804688 353.613281 260.480469 353.398438 257.351562 352.65625 L 233.171875 376.859375 L 233.171875 407.871094 L 256.492188 407.871094 C 270 403.085938 282.667969 394.679688 293.554688 384 C 304.441406 373.367188 313.542969 360.40625 319.90625 346.578125 L 347.292969 346.578125 L 388.683594 388.015625 C 392.046875 391.378906 396.492188 393.082031 400.902344 393.082031 C 405.347656 393.082031 409.746094 391.378906 413.117188 388.015625 C 419.890625 381.261719 419.890625 370.296875 413.117188 363.554688 L 366.652344 317.050781 C 363.445312 313.789062 359.035156 311.972656 354.449219 311.972656 L 329.605469 311.972656 C 329.835938 309.257812 329.976562 306.597656 329.976562 303.925781 L 329.976562 256.460938 " fill-opacity="1" fill-rule="nonzero"/></g><path fill="#64ffda" d="M 118.605469 81 L 155.433594 95.992188 L 169.300781 117.050781 C 158.679688 128.757812 151.34375 143.480469 148.816406 159.820312 C 147.78125 166.484375 153.097656 172.445312 159.832031 172.445312 L 300.75 172.445312 C 307.472656 172.445312 312.800781 166.484375 311.765625 159.820312 C 309.234375 143.480469 301.886719 128.757812 291.265625 117.050781 L 305.132812 95.992188 L 341.976562 80.984375 C 350.332031 77.582031 355.316406 68.421875 352.722656 59.761719 C 349.746094 49.835938 339.011719 44.84375 329.644531 48.65625 L 287.140625 65.964844 C 283.90625 67.273438 281.160156 69.546875 279.230469 72.464844 L 263.203125 96.796875 C 253.121094 92.398438 241.988281 89.914062 230.285156 89.914062 C 218.578125 89.914062 207.460938 92.398438 197.375 96.796875 L 181.339844 72.464844 C 179.421875 69.546875 176.660156 67.273438 173.429688 65.964844 L 130.9375 48.65625 C 121.582031 44.84375 110.820312 49.835938 107.84375 59.761719 C 105.261719 68.421875 110.246094 77.582031 118.605469 81 " fill-opacity="1" fill-rule="nonzero"/><g fill="#ffffff" fill-opacity="1"><g transform="translate(451.993407, 335.410166)"><g><path d="M 12.84375 -176.65625 L 64.015625 -176.65625 C 88.578125 -176.65625 109.5625 -168.265625 126.96875 -151.484375 C 144.382812 -134.710938 153.09375 -113.695312 153.09375 -88.4375 C 153.09375 -63.019531 144.421875 -41.925781 127.078125 -25.15625 C 109.734375 -8.382812 88.710938 0 64.015625 0 L 12.84375 0 Z M 53.109375 -35.96875 L 59.3125 -35.96875 C 74.019531 -35.96875 86.046875 -40.925781 95.390625 -50.84375 C 104.742188 -60.769531 109.488281 -73.226562 109.625 -88.21875 C 109.625 -103.207031 104.945312 -115.695312 95.59375 -125.6875 C 86.25 -135.6875 74.15625 -140.6875 59.3125 -140.6875 L 53.109375 -140.6875 Z M 53.109375 -35.96875 "/></g></g></g><g fill="#ffffff" fill-opacity="1"><g transform="translate(599.309761, 335.410166)"><g><path d="M 123.984375 -49.671875 L 44.328125 -49.671875 C 44.328125 -41.960938 46.820312 -36.253906 51.8125 -32.546875 C 56.8125 -28.835938 62.238281 -26.984375 68.09375 -26.984375 C 74.226562 -26.984375 79.078125 -27.800781 82.640625 -29.4375 C 86.210938 -31.082031 90.285156 -34.332031 94.859375 -39.1875 L 122.265625 -25.484375 C 110.847656 -6.347656 91.863281 3.21875 65.3125 3.21875 C 48.75 3.21875 34.539062 -2.453125 22.6875 -13.796875 C 10.84375 -25.148438 4.921875 -38.820312 4.921875 -54.8125 C 4.921875 -70.800781 10.84375 -84.503906 22.6875 -95.921875 C 34.539062 -107.347656 48.75 -113.0625 65.3125 -113.0625 C 82.726562 -113.0625 96.894531 -108.023438 107.8125 -97.953125 C 118.726562 -87.890625 124.1875 -73.507812 124.1875 -54.8125 C 124.1875 -52.25 124.117188 -50.535156 123.984375 -49.671875 Z M 45.390625 -70.65625 L 87.15625 -70.65625 C 86.289062 -76.363281 84.035156 -80.753906 80.390625 -83.828125 C 76.753906 -86.898438 72.082031 -88.4375 66.375 -88.4375 C 60.09375 -88.4375 55.097656 -86.789062 51.390625 -83.5 C 47.679688 -80.21875 45.679688 -75.9375 45.390625 -70.65625 Z M 45.390625 -70.65625 "/></g></g></g><g fill="#ffffff" fill-opacity="1"><g transform="translate(717.71955, 335.410166)"><g><path d="M 125.90625 -96.140625 C 136.1875 -84.859375 141.328125 -71.082031 141.328125 -54.8125 C 141.328125 -38.539062 136.1875 -24.800781 125.90625 -13.59375 C 115.625 -2.382812 102.5625 3.21875 86.71875 3.21875 C 72.15625 3.21875 60.164062 -1.992188 50.75 -12.421875 L 50.3125 -12.421875 L 50.3125 0 L 12.84375 0 L 12.84375 -184.140625 L 50.75 -184.140625 L 50.75 -99.359375 C 60.164062 -108.492188 72.15625 -113.0625 86.71875 -113.0625 C 102.5625 -113.0625 115.625 -107.421875 125.90625 -96.140625 Z M 94 -36.296875 C 98.707031 -41.078125 101.0625 -47.25 101.0625 -54.8125 C 101.0625 -62.382812 98.597656 -68.59375 93.671875 -73.4375 C 88.753906 -78.289062 82.65625 -80.71875 75.375 -80.71875 C 68.238281 -80.71875 62.207031 -78.289062 57.28125 -73.4375 C 52.351562 -68.59375 49.890625 -62.382812 49.890625 -54.8125 C 49.890625 -47.394531 52.28125 -41.257812 57.0625 -36.40625 C 61.84375 -31.550781 67.945312 -29.125 75.375 -29.125 C 83.082031 -29.125 89.289062 -31.515625 94 -36.296875 Z M 94 -36.296875 "/></g></g></g><g fill="#ffffff" fill-opacity="1"><g transform="translate(853.259176, 335.410166)"><g><path d="M 48.609375 -109.84375 L 48.609375 -57.59375 C 48.609375 -46.75 50.25 -39.039062 53.53125 -34.46875 C 56.8125 -29.90625 62.378906 -27.625 70.234375 -27.625 C 78.085938 -27.625 83.65625 -29.90625 86.9375 -34.46875 C 90.21875 -39.039062 91.859375 -46.75 91.859375 -57.59375 L 91.859375 -109.84375 L 129.765625 -109.84375 L 129.765625 -48.390625 C 129.765625 -30.117188 125.015625 -16.945312 115.515625 -8.875 C 106.023438 -0.8125 90.929688 3.21875 70.234375 3.21875 C 49.535156 3.21875 34.4375 -0.8125 24.9375 -8.875 C 15.445312 -16.945312 10.703125 -30.117188 10.703125 -48.390625 L 10.703125 -109.84375 Z M 48.609375 -109.84375 "/></g></g></g><g fill="#ffffff" fill-opacity="1"><g transform="translate(983.017498, 335.410166)"><g><path d="M 7.921875 26.984375 L 38.96875 11.78125 C 44.675781 21.195312 54.597656 25.90625 68.734375 25.90625 C 75.296875 25.90625 81.394531 23.800781 87.03125 19.59375 C 92.675781 15.382812 95.5 8.925781 95.5 0.21875 L 95.5 -7.921875 C 88.789062 -0.492188 76.800781 3.21875 59.53125 3.21875 C 43.6875 3.21875 30.625 -2.382812 20.34375 -13.59375 C 10.0625 -24.800781 4.921875 -38.539062 4.921875 -54.8125 C 4.921875 -71.082031 10.0625 -84.859375 20.34375 -96.140625 C 30.625 -107.421875 43.6875 -113.0625 59.53125 -113.0625 C 73.65625 -113.0625 85.429688 -108.707031 94.859375 -100 L 95.5 -100 L 95.5 -109.84375 L 133.40625 -109.84375 L 133.40625 3 C 133.40625 20.84375 127.476562 34.617188 115.625 44.328125 C 103.78125 54.035156 88.148438 58.890625 68.734375 58.890625 C 37.328125 58.890625 17.054688 48.253906 7.921875 26.984375 Z M 52.5625 -73.4375 C 47.644531 -68.59375 45.1875 -62.382812 45.1875 -54.8125 C 45.1875 -47.25 47.539062 -41.078125 52.25 -36.296875 C 56.957031 -31.515625 63.164062 -29.125 70.875 -29.125 C 78.300781 -29.125 84.40625 -31.550781 89.1875 -36.40625 C 93.96875 -41.257812 96.359375 -47.394531 96.359375 -54.8125 C 96.359375 -62.382812 93.894531 -68.59375 88.96875 -73.4375 C 84.039062 -78.289062 78.007812 -80.71875 70.875 -80.71875 C 63.59375 -80.71875 57.488281 -78.289062 52.5625 -73.4375 Z M 52.5625 -73.4375 "/></g></g></g><g fill="#ffffff" fill-opacity="1"><g transform="translate(1118.557076, 335.410166)"><g><path d="M 16.484375 -171.078125 C 20.910156 -175.503906 26.191406 -177.71875 32.328125 -177.71875 C 38.472656 -177.71875 43.753906 -175.503906 48.171875 -171.078125 C 52.597656 -166.660156 54.8125 -161.378906 54.8125 -155.234375 C 54.8125 -149.097656 52.597656 -143.816406 48.171875 -139.390625 C 43.753906 -134.960938 38.472656 -132.75 32.328125 -132.75 C 26.191406 -132.75 20.910156 -134.960938 16.484375 -139.390625 C 12.054688 -143.816406 9.84375 -149.097656 9.84375 -155.234375 C 9.84375 -161.378906 12.054688 -166.660156 16.484375 -171.078125 Z M 12.84375 -109.84375 L 12.84375 0 L 50.75 0 L 50.75 -109.84375 Z M 12.84375 -109.84375 "/></g></g></g><g fill="#ffffff" fill-opacity="1"><g transform="translate(1172.51597, 335.410166)"><g><path d="M 60.59375 -113.0625 C 66.875 -113.0625 73.082031 -112.347656 79.21875 -110.921875 C 85.363281 -109.492188 89.9375 -108.066406 92.9375 -106.640625 L 97.421875 -104.5 L 85 -79.65625 C 76.4375 -84.21875 68.300781 -86.5 60.59375 -86.5 C 56.3125 -86.5 53.28125 -86.035156 51.5 -85.109375 C 49.71875 -84.179688 48.828125 -82.4375 48.828125 -79.875 C 48.828125 -79.300781 48.894531 -78.726562 49.03125 -78.15625 C 49.175781 -77.582031 49.460938 -77.046875 49.890625 -76.546875 C 50.316406 -76.046875 50.707031 -75.617188 51.0625 -75.265625 C 51.425781 -74.910156 52.035156 -74.515625 52.890625 -74.078125 C 53.742188 -73.648438 54.421875 -73.328125 54.921875 -73.109375 C 55.421875 -72.898438 56.238281 -72.582031 57.375 -72.15625 C 58.519531 -71.726562 59.378906 -71.40625 59.953125 -71.1875 C 60.523438 -70.976562 61.488281 -70.660156 62.84375 -70.234375 C 64.195312 -69.804688 65.234375 -69.519531 65.953125 -69.375 C 70.378906 -68.09375 74.234375 -66.664062 77.515625 -65.09375 C 80.796875 -63.519531 84.253906 -61.378906 87.890625 -58.671875 C 91.535156 -55.960938 94.359375 -52.535156 96.359375 -48.390625 C 98.359375 -44.253906 99.359375 -39.546875 99.359375 -34.265625 C 99.359375 -9.273438 82.015625 3.21875 47.328125 3.21875 C 39.472656 3.21875 32.007812 2.003906 24.9375 -0.421875 C 17.875 -2.847656 12.773438 -5.273438 9.640625 -7.703125 L 4.921875 -11.5625 L 20.34375 -37.46875 C 21.488281 -36.46875 22.988281 -35.289062 24.84375 -33.9375 C 26.695312 -32.582031 30.050781 -30.726562 34.90625 -28.375 C 39.757812 -26.019531 43.96875 -24.84375 47.53125 -24.84375 C 55.382812 -24.84375 59.3125 -27.484375 59.3125 -32.765625 C 59.3125 -35.191406 58.3125 -37.082031 56.3125 -38.4375 C 54.3125 -39.789062 50.921875 -41.320312 46.140625 -43.03125 C 41.359375 -44.75 37.613281 -46.320312 34.90625 -47.75 C 28.050781 -51.320312 22.625 -55.351562 18.625 -59.84375 C 14.632812 -64.34375 12.640625 -70.304688 12.640625 -77.734375 C 12.640625 -88.859375 16.957031 -97.523438 25.59375 -103.734375 C 34.226562 -109.953125 45.894531 -113.0625 60.59375 -113.0625 Z M 60.59375 -113.0625 "/></g></g></g><g fill="#ffffff" fill-opacity="1"><g transform="translate(1267.158181, 335.410166)"><g><path d="M 19.265625 -109.84375 L 19.265625 -150.75 L 57.171875 -150.75 L 57.171875 -109.84375 L 80.296875 -109.84375 L 80.296875 -80.9375 L 57.171875 -80.9375 L 57.171875 -46.03125 C 57.171875 -35.894531 60.023438 -30.828125 65.734375 -30.828125 C 67.160156 -30.828125 68.660156 -31.113281 70.234375 -31.6875 C 71.804688 -32.257812 73.019531 -32.832031 73.875 -33.40625 L 75.15625 -34.265625 L 84.578125 -3.640625 C 76.441406 0.929688 67.164062 3.21875 56.75 3.21875 C 49.601562 3.21875 43.460938 1.96875 38.328125 -0.53125 C 33.191406 -3.03125 29.300781 -6.382812 26.65625 -10.59375 C 24.019531 -14.8125 22.128906 -19.238281 20.984375 -23.875 C 19.835938 -28.507812 19.265625 -33.46875 19.265625 -38.75 L 19.265625 -80.9375 L 3.421875 -80.9375 L 3.421875 -109.84375 Z M 19.265625 -109.84375 "/></g></g></g><g fill="#ffffff" fill-opacity="1"><g transform="translate(1341.030491, 335.410166)"><g><path d="M 37.25 -45.828125 C 44.101562 -45.828125 49.921875 -43.429688 54.703125 -38.640625 C 59.484375 -33.859375 61.875 -28.046875 61.875 -21.203125 C 61.875 -14.492188 59.484375 -8.742188 54.703125 -3.953125 C 49.921875 0.828125 44.101562 3.21875 37.25 3.21875 C 30.539062 3.21875 24.796875 0.828125 20.015625 -3.953125 C 15.234375 -8.742188 12.84375 -14.492188 12.84375 -21.203125 C 12.84375 -28.046875 15.234375 -33.859375 20.015625 -38.640625 C 24.796875 -43.429688 30.539062 -45.828125 37.25 -45.828125 Z M 37.25 -45.828125 "/></g></g></g></svg>