<svg xmlns="http://www.w3.org/2000/svg" xmlns:xlink="http://www.w3.org/1999/xlink" width="1920" zoomAndPan="magnify" viewBox="0 0 1440 299.999988" height="400" preserveAspectRatio="xMidYMid meet" version="1.0"><defs><g/><clipPath id="id1"><path d="M 0 108 L 338.25 108 L 338.25 299.523438 L 0 299.523438 Z M 0 108 " clip-rule="nonzero"/></clipPath></defs><g clip-path="url(#id1)"><path fill="#64ffda" d="M 251.371094 174.90625 L 285.792969 174.90625 C 289.585938 174.90625 293.210938 173.410156 295.867188 170.726562 L 334.179688 132.453125 C 339.761719 126.890625 339.761719 117.867188 334.179688 112.320312 C 328.617188 106.769531 319.585938 106.769531 314.03125 112.320312 L 279.90625 146.414062 L 251.371094 146.414062 C 251.371094 136.914062 243.667969 129.21875 234.15625 129.21875 L 190.914062 129.21875 L 190.914062 159.660156 C 190.914062 162.890625 189.628906 166 187.339844 168.285156 L 163.84375 191.796875 C 164.457031 194.386719 164.625 197.113281 164.253906 199.988281 C 162.9375 210.308594 154.519531 218.710938 144.171875 219.933594 C 129.210938 221.710938 116.640625 209.171875 118.410156 194.207031 C 119.621094 183.878906 128.03125 175.453125 138.355469 174.117188 C 141.242188 173.75 143.972656 173.925781 146.5625 174.539062 L 166.5 154.617188 L 166.5 129.21875 L 104.207031 129.21875 C 94.691406 129.21875 86.988281 136.914062 86.988281 146.414062 L 58.457031 146.414062 L 24.328125 112.320312 C 18.746094 106.769531 9.746094 106.769531 4.183594 112.320312 C -1.390625 117.867188 -1.390625 126.890625 4.183594 132.453125 L 42.453125 170.714844 C 45.128906 173.402344 48.773438 174.90625 52.566406 174.90625 L 86.988281 174.90625 L 86.988281 213.972656 C 86.988281 216.171875 87.085938 218.363281 87.296875 220.59375 L 66.78125 220.59375 C 63.03125 220.59375 59.40625 222.089844 56.71875 224.773438 L 18.40625 263.050781 C 12.855469 268.601562 12.855469 277.625 18.40625 283.183594 C 21.222656 285.953125 24.84375 287.351562 28.511719 287.351562 C 32.148438 287.351562 35.804688 285.953125 38.585938 283.183594 L 72.703125 249.078125 L 95.292969 249.078125 C 105.734375 271.738281 125.046875 291.417969 147.144531 299.378906 L 147.144531 268.9375 C 147.144531 265.695312 148.441406 262.585938 150.726562 260.292969 L 174.222656 236.820312 C 173.601562 234.230469 173.421875 231.492188 173.800781 228.609375 C 175.140625 218.289062 183.570312 209.898438 193.914062 208.675781 C 208.878906 206.925781 221.425781 219.480469 219.644531 234.429688 C 218.414062 244.761719 210.003906 253.171875 199.691406 254.5 C 196.8125 254.867188 194.074219 254.691406 191.492188 254.078125 L 171.558594 274 L 171.558594 299.523438 L 190.785156 299.523438 C 201.921875 295.585938 212.363281 288.667969 221.34375 279.878906 C 230.320312 271.125 237.820312 260.460938 243.070312 249.078125 L 265.648438 249.078125 L 299.777344 283.183594 C 302.546875 285.953125 306.214844 287.351562 309.851562 287.351562 C 313.515625 287.351562 317.140625 285.953125 319.921875 283.183594 C 325.507812 277.625 325.507812 268.601562 319.921875 263.050781 L 281.613281 224.773438 C 278.96875 222.089844 275.332031 220.59375 271.550781 220.59375 L 251.066406 220.59375 C 251.253906 218.363281 251.371094 216.171875 251.371094 213.972656 L 251.371094 174.90625 " fill-opacity="1" fill-rule="nonzero"/></g><path fill="#64ffda" d="M 77.097656 30.492188 L 107.460938 42.832031 L 118.894531 60.164062 C 110.140625 69.800781 104.089844 81.917969 102.003906 95.367188 C 101.152344 100.851562 105.535156 105.757812 111.085938 105.757812 L 227.273438 105.757812 C 232.816406 105.757812 237.210938 100.851562 236.355469 95.367188 C 234.269531 81.917969 228.210938 69.800781 219.457031 60.164062 L 230.886719 42.832031 L 261.265625 30.480469 C 268.15625 27.679688 272.265625 20.140625 270.125 13.011719 C 267.671875 4.84375 258.820312 0.734375 251.097656 3.875 L 216.054688 18.121094 C 213.386719 19.195312 211.121094 21.070312 209.53125 23.46875 L 196.316406 43.496094 C 188.003906 39.875 178.828125 37.832031 169.175781 37.832031 C 159.523438 37.832031 150.355469 39.875 142.042969 43.496094 L 128.820312 23.46875 C 127.238281 21.070312 124.964844 19.195312 122.296875 18.121094 L 87.265625 3.875 C 79.550781 0.734375 70.679688 4.84375 68.222656 13.011719 C 66.097656 20.140625 70.207031 27.679688 77.097656 30.492188 " fill-opacity="1" fill-rule="nonzero"/><g fill="#ffffff" fill-opacity="1"><g transform="translate(338.028164, 216.341874)"><g><path d="M 14.46875 -199.03125 L 72.140625 -199.03125 C 99.796875 -199.03125 123.4375 -189.582031 143.0625 -170.6875 C 162.6875 -151.789062 172.5 -128.109375 172.5 -99.640625 C 172.5 -71.003906 162.726562 -47.238281 143.1875 -28.34375 C 123.644531 -9.445312 99.960938 0 72.140625 0 L 14.46875 0 Z M 59.828125 -40.53125 L 66.828125 -40.53125 C 83.390625 -40.53125 96.9375 -46.117188 107.46875 -57.296875 C 118.007812 -68.472656 123.359375 -82.503906 123.515625 -99.390625 C 123.515625 -116.273438 118.25 -130.347656 107.71875 -141.609375 C 97.1875 -152.867188 83.554688 -158.5 66.828125 -158.5 L 59.828125 -158.5 Z M 59.828125 -40.53125 "/></g></g></g><g fill="#ffffff" fill-opacity="1"><g transform="translate(504.00363, 216.341874)"><g><path d="M 139.6875 -55.96875 L 49.9375 -55.96875 C 49.9375 -47.28125 52.75 -40.84375 58.375 -36.65625 C 64.007812 -32.476562 70.125 -30.390625 76.71875 -30.390625 C 83.632812 -30.390625 89.101562 -31.316406 93.125 -33.171875 C 97.144531 -35.023438 101.726562 -38.6875 106.875 -44.15625 L 137.75 -28.703125 C 124.882812 -7.148438 103.492188 3.625 73.578125 3.625 C 54.921875 3.625 38.914062 -2.765625 25.5625 -15.546875 C 12.21875 -28.335938 5.546875 -43.738281 5.546875 -61.75 C 5.546875 -79.769531 12.21875 -95.210938 25.5625 -108.078125 C 38.914062 -120.941406 54.921875 -127.375 73.578125 -127.375 C 93.203125 -127.375 109.164062 -121.703125 121.46875 -110.359375 C 133.769531 -99.023438 139.921875 -82.828125 139.921875 -61.765625 C 139.921875 -58.867188 139.84375 -56.9375 139.6875 -55.96875 Z M 51.140625 -79.609375 L 98.1875 -79.609375 C 97.21875 -86.046875 94.679688 -90.992188 90.578125 -94.453125 C 86.484375 -97.910156 81.21875 -99.640625 74.78125 -99.640625 C 67.707031 -99.640625 62.078125 -97.785156 57.890625 -94.078125 C 53.710938 -90.378906 51.460938 -85.554688 51.140625 -79.609375 Z M 51.140625 -79.609375 "/></g></g></g><g fill="#ffffff" fill-opacity="1"><g transform="translate(637.411221, 216.341874)"><g><path d="M 141.84375 -108.3125 C 153.425781 -95.613281 159.21875 -80.09375 159.21875 -61.75 C 159.21875 -43.414062 153.425781 -27.9375 141.84375 -15.3125 C 130.269531 -2.6875 115.554688 3.625 97.703125 3.625 C 81.296875 3.625 67.785156 -2.25 57.171875 -14 L 56.6875 -14 L 56.6875 0 L 14.46875 0 L 14.46875 -207.46875 L 57.171875 -207.46875 L 57.171875 -111.9375 C 67.785156 -122.226562 81.296875 -127.375 97.703125 -127.375 C 115.554688 -127.375 130.269531 -121.019531 141.84375 -108.3125 Z M 105.90625 -40.890625 C 111.21875 -46.273438 113.875 -53.226562 113.875 -61.75 C 113.875 -70.28125 111.097656 -77.28125 105.546875 -82.75 C 99.992188 -88.21875 93.117188 -90.953125 84.921875 -90.953125 C 76.878906 -90.953125 70.082031 -88.21875 64.53125 -82.75 C 58.988281 -77.28125 56.21875 -70.285156 56.21875 -61.765625 C 56.21875 -53.398438 58.910156 -46.484375 64.296875 -41.015625 C 69.679688 -35.546875 76.554688 -32.8125 84.921875 -32.8125 C 93.609375 -32.8125 100.601562 -35.503906 105.90625 -40.890625 Z M 105.90625 -40.890625 "/></g></g></g><g fill="#ffffff" fill-opacity="1"><g transform="translate(790.118316, 216.341874)"><g><path d="M 54.765625 -123.765625 L 54.765625 -64.890625 C 54.765625 -52.671875 56.613281 -43.988281 60.3125 -38.84375 C 64.007812 -33.695312 70.28125 -31.125 79.125 -31.125 C 87.976562 -31.125 94.253906 -33.695312 97.953125 -38.84375 C 101.648438 -43.988281 103.5 -52.671875 103.5 -64.890625 L 103.5 -123.765625 L 146.203125 -123.765625 L 146.203125 -54.515625 C 146.203125 -33.929688 140.851562 -19.09375 130.15625 -10 C 119.457031 -0.914062 102.445312 3.625 79.125 3.625 C 55.8125 3.625 38.804688 -0.914062 28.109375 -10 C 17.410156 -19.09375 12.0625 -33.929688 12.0625 -54.515625 L 12.0625 -123.765625 Z M 54.765625 -123.765625 "/></g></g></g><g fill="#ffffff" fill-opacity="1"><g transform="translate(936.311846, 216.341874)"><g><path d="M 8.921875 30.390625 L 43.90625 13.265625 C 50.34375 23.878906 61.519531 29.1875 77.4375 29.1875 C 84.832031 29.1875 91.707031 26.8125 98.0625 22.0625 C 104.414062 17.320312 107.59375 10.046875 107.59375 0.234375 L 107.59375 -8.921875 C 100.039062 -0.554688 86.53125 3.625 67.0625 3.625 C 49.207031 3.625 34.488281 -2.6875 22.90625 -15.3125 C 11.332031 -27.9375 5.546875 -43.414062 5.546875 -61.75 C 5.546875 -80.09375 11.332031 -95.613281 22.90625 -108.3125 C 34.488281 -121.019531 49.207031 -127.375 67.0625 -127.375 C 82.988281 -127.375 96.257812 -122.46875 106.875 -112.65625 L 107.59375 -112.65625 L 107.59375 -123.765625 L 150.296875 -123.765625 L 150.296875 3.375 C 150.296875 23.476562 143.617188 39 130.265625 49.9375 C 116.921875 60.875 99.3125 66.34375 77.4375 66.34375 C 42.050781 66.34375 19.210938 54.359375 8.921875 30.390625 Z M 59.21875 -82.75 C 53.675781 -77.28125 50.90625 -70.28125 50.90625 -61.75 C 50.90625 -53.226562 53.554688 -46.273438 58.859375 -40.890625 C 64.171875 -35.503906 71.171875 -32.8125 79.859375 -32.8125 C 88.222656 -32.8125 95.097656 -35.546875 100.484375 -41.015625 C 105.867188 -46.484375 108.5625 -53.398438 108.5625 -61.765625 C 108.5625 -70.285156 105.785156 -77.28125 100.234375 -82.75 C 94.691406 -88.21875 87.898438 -90.953125 79.859375 -90.953125 C 71.648438 -90.953125 64.769531 -88.21875 59.21875 -82.75 Z M 59.21875 -82.75 "/></g></g></g><g fill="#ffffff" fill-opacity="1"><g transform="translate(1089.018887, 216.341874)"><g><path d="M 18.578125 -192.75 C 23.566406 -197.738281 29.515625 -200.234375 36.421875 -200.234375 C 43.335938 -200.234375 49.289062 -197.738281 54.28125 -192.75 C 59.269531 -187.769531 61.765625 -181.820312 61.765625 -174.90625 C 61.765625 -167.988281 59.269531 -162.035156 54.28125 -157.046875 C 49.289062 -152.066406 43.335938 -149.578125 36.421875 -149.578125 C 29.515625 -149.578125 23.566406 -152.066406 18.578125 -157.046875 C 13.585938 -162.035156 11.09375 -167.988281 11.09375 -174.90625 C 11.09375 -181.820312 13.585938 -187.769531 18.578125 -192.75 Z M 14.46875 -123.765625 L 14.46875 0 L 57.171875 0 L 57.171875 -123.765625 Z M 14.46875 -123.765625 "/></g></g></g><g fill="#ffffff" fill-opacity="1"><g transform="translate(1149.812224, 216.341874)"><g><path d="M 68.28125 -127.375 C 75.351562 -127.375 82.347656 -126.570312 89.265625 -124.96875 C 96.179688 -123.363281 101.328125 -121.753906 104.703125 -120.140625 L 109.765625 -117.734375 L 95.78125 -89.75 C 86.125 -94.894531 76.957031 -97.46875 68.28125 -97.46875 C 63.445312 -97.46875 60.023438 -96.941406 58.015625 -95.890625 C 56.003906 -94.847656 55 -92.878906 55 -89.984375 C 55 -89.335938 55.078125 -88.691406 55.234375 -88.046875 C 55.398438 -87.410156 55.722656 -86.8125 56.203125 -86.25 C 56.691406 -85.6875 57.132812 -85.203125 57.53125 -84.796875 C 57.9375 -84.398438 58.617188 -83.957031 59.578125 -83.46875 C 60.546875 -82.988281 61.3125 -82.628906 61.875 -82.390625 C 62.4375 -82.148438 63.359375 -81.785156 64.640625 -81.296875 C 65.929688 -80.816406 66.898438 -80.457031 67.546875 -80.21875 C 68.191406 -79.976562 69.273438 -79.613281 70.796875 -79.125 C 72.328125 -78.644531 73.5 -78.328125 74.3125 -78.171875 C 79.289062 -76.722656 83.628906 -75.113281 87.328125 -73.34375 C 91.023438 -71.570312 94.925781 -69.15625 99.03125 -66.09375 C 103.132812 -63.039062 106.3125 -59.179688 108.5625 -54.515625 C 110.8125 -49.859375 111.9375 -44.550781 111.9375 -38.59375 C 111.9375 -10.445312 92.394531 3.625 53.3125 3.625 C 44.46875 3.625 36.0625 2.257812 28.09375 -0.46875 C 20.132812 -3.207031 14.390625 -5.945312 10.859375 -8.6875 L 5.546875 -13.03125 L 22.921875 -42.21875 C 24.203125 -41.09375 25.890625 -39.765625 27.984375 -38.234375 C 30.078125 -36.710938 33.859375 -34.625 39.328125 -31.96875 C 44.796875 -29.3125 49.539062 -27.984375 53.5625 -27.984375 C 62.40625 -27.984375 66.828125 -30.957031 66.828125 -36.90625 C 66.828125 -39.644531 65.703125 -41.773438 63.453125 -43.296875 C 61.203125 -44.828125 57.378906 -46.554688 51.984375 -48.484375 C 46.597656 -50.421875 42.378906 -52.191406 39.328125 -53.796875 C 31.609375 -57.816406 25.492188 -62.359375 20.984375 -67.421875 C 16.484375 -72.492188 14.234375 -79.210938 14.234375 -87.578125 C 14.234375 -100.117188 19.097656 -109.882812 28.828125 -116.875 C 38.554688 -123.875 51.707031 -127.375 68.28125 -127.375 Z M 68.28125 -127.375 "/></g></g></g><g fill="#ffffff" fill-opacity="1"><g transform="translate(1256.441831, 216.341874)"><g><path d="M 21.71875 -123.765625 L 21.71875 -169.84375 L 64.40625 -169.84375 L 64.40625 -123.765625 L 90.46875 -123.765625 L 90.46875 -91.1875 L 64.40625 -91.1875 L 64.40625 -51.875 C 64.40625 -40.445312 67.625 -34.734375 74.0625 -34.734375 C 75.664062 -34.734375 77.351562 -35.054688 79.125 -35.703125 C 80.894531 -36.347656 82.265625 -36.992188 83.234375 -37.640625 L 84.671875 -38.59375 L 95.296875 -4.09375 C 86.128906 1.050781 75.675781 3.625 63.9375 3.625 C 55.894531 3.625 48.976562 2.21875 43.1875 -0.59375 C 37.394531 -3.414062 33.007812 -7.195312 30.03125 -11.9375 C 27.0625 -16.6875 24.929688 -21.671875 23.640625 -26.890625 C 22.359375 -32.117188 21.71875 -37.710938 21.71875 -43.671875 L 21.71875 -91.1875 L 3.859375 -91.1875 L 3.859375 -123.765625 Z M 21.71875 -123.765625 "/></g></g></g><g fill="#ffffff" fill-opacity="1"><g transform="translate(1339.670819, 216.341874)"><g><path d="M 41.984375 -51.625 C 49.703125 -51.625 56.253906 -48.929688 61.640625 -43.546875 C 67.023438 -38.160156 69.71875 -31.609375 69.71875 -23.890625 C 69.71875 -16.328125 67.023438 -9.847656 61.640625 -4.453125 C 56.253906 0.929688 49.703125 3.625 41.984375 3.625 C 34.421875 3.625 27.941406 0.929688 22.546875 -4.453125 C 17.160156 -9.847656 14.46875 -16.328125 14.46875 -23.890625 C 14.46875 -31.609375 17.160156 -38.160156 22.546875 -43.546875 C 27.941406 -48.929688 34.421875 -51.625 41.984375 -51.625 Z M 41.984375 -51.625 "/></g></g></g></svg>